<?xml version="1.0" encoding="UTF-8" standalone="no"?>
<!-- Generator: IcoMoon.io -->

<svg
   xmlns:dc="http://purl.org/dc/elements/1.1/"
   xmlns:cc="http://creativecommons.org/ns#"
   xmlns:rdf="http://www.w3.org/1999/02/22-rdf-syntax-ns#"
   xmlns:svg="http://www.w3.org/2000/svg"
   xmlns="http://www.w3.org/2000/svg"
   xmlns:sodipodi="http://sodipodi.sourceforge.net/DTD/sodipodi-0.dtd"
   xmlns:inkscape="http://www.inkscape.org/namespaces/inkscape"
   width="512"
   height="512"
   viewBox="0 0 512 512"
   fill="#000000"
   id="svg2"
   version="1.1"
   inkscape:version="0.48.4 r9939"
   sodipodi:docname="rsnapshot.svg"
   inkscape:export-filename="/home/julakali/dev/openmediavault-code/deb/openmediavault-rsnapshot/var/www/openmediavault/images/rsnapshot.png"
   inkscape:export-xdpi="2.8125"
   inkscape:export-ydpi="2.8125">
  <metadata
     id="metadata10">
    <rdf:RDF>
      <cc:Work
         rdf:about="">
        <dc:format>image/svg+xml</dc:format>
        <dc:type
           rdf:resource="http://purl.org/dc/dcmitype/StillImage" />
        <dc:title></dc:title>
      </cc:Work>
    </rdf:RDF>
  </metadata>
  <defs
     id="defs8" />
  <sodipodi:namedview
     pagecolor="#ffffff"
     bordercolor="#666666"
     borderopacity="1"
     objecttolerance="10"
     gridtolerance="10"
     guidetolerance="10"
     inkscape:pageopacity="0"
     inkscape:pageshadow="2"
     inkscape:window-width="999"
     inkscape:window-height="669"
     id="namedview6"
     showgrid="false"
     inkscape:zoom="0.65186406"
     inkscape:cx="241.62187"
     inkscape:cy="232.05448"
     inkscape:window-x="316"
     inkscape:window-y="138"
     inkscape:window-maximized="0"
     inkscape:current-layer="g3765" />
  <g
     id="g3800"
     transform="matrix(1.3549054,0,0,1.3549054,-103.61665,-102.24319)">
    <g
       style="stroke-width:7;stroke-miterlimit:4;stroke-dasharray:none"
       id="g3765">
      <g
         transform="matrix(0.74273608,0,0,0.6970339,496.38905,-138.17868)"
         id="g3793"
         style="fill:#000000">
        <path
           inkscape:connector-curvature="0"
           d="m -178.44068,847.18644 -320,0 q -26.5,0 -45.25,-18.75 -18.75,-18.75 -18.75,-45.25 l 0,-384 q 0,-26.5 18.75,-45.25 18.75,-18.75 45.25,-18.75 l 320,0 q 26.5,0 45.25,18.75 18.75,18.75 18.75,45.25 l 0,384 q 0,26.5 -18.75,45.25 -18.75,18.75 -45.25,18.75 z m 0,-144 q 0,-16 -9.5,-28.5 -9.5,-12.5 -24.5,-17 34,-43.5 34,-98.5 0,-43.5 -21.5,-80.25 -21.5,-36.75 -58.25,-58.25 -36.75,-21.5 -80.25,-21.5 -43.5,0 -80.25,21.5 -36.75,21.5 -58.25,58.25 -21.5,36.75 -21.5,80.25 0,55 34,98.5 -15,4.5 -24.5,17 -9.5,12.5 -9.5,28.5 l 0,32 q 0,20 14,34 14,14 34,14 l 224,0 q 20,0 34,-14 14,-14 14,-34 l 0,-32 z m -160,-80 q -26.5,0 -45.25,-18.75 -18.75,-18.75 -18.75,-45.25 0,-26.5 18.75,-45.25 18.75,-18.75 45.25,-18.75 26.5,0 45.25,18.75 18.75,18.75 18.75,45.25 0,26.5 -18.75,45.25 -18.75,18.75 -45.25,18.75 z"
           id="path3785" />
      </g>
      <g
         style="fill:#ffffff;fill-opacity:1"
         transform="matrix(1.2384267,0,0,1.2384267,367.16519,160.48715)"
         id="g3796">
        <path
           transform="translate(38.163247,-42.508475)"
           sodipodi:end="6.3883036"
           sodipodi:start="0.1066273"
           d="m 281.56315,260.33136 c -3.76704,35.19508 -35.35208,60.67254 -70.54716,56.9055 -35.19508,-3.76705 -60.67254,-35.35209 -56.9055,-70.54717 3.76705,-35.19508 35.35209,-60.67253 70.54717,-56.90549 35.15753,3.76302 60.62568,35.28782 56.91571,70.45099 l -63.73655,-6.72466 z"
           sodipodi:ry="64.090317"
           sodipodi:rx="64.090317"
           sodipodi:cy="253.51053"
           sodipodi:cx="217.83682"
           id="path2993"
           style="fill:#ffffff;fill-opacity:1;stroke:#000000;stroke-width:7;stroke-miterlimit:4;stroke-opacity:1;stroke-dasharray:none;stroke-dashoffset:11.70894146"
           sodipodi:type="arc" />
        <path
           sodipodi:nodetypes="cc"
           inkscape:connector-curvature="0"
           id="path3763"
           d="M 254.91526,146.44068 256,211.52542"
           style="fill:#ffffff;fill-opacity:1;stroke:#000000;stroke-width:7;stroke-linecap:butt;stroke-linejoin:miter;stroke-miterlimit:4;stroke-opacity:1;stroke-dasharray:none" />
      </g>
      <path
         sodipodi:nodetypes="ccccccc"
         inkscape:connector-curvature="0"
         id="path3773"
         d="M 263.19258,274.57865 C 298.2839,196.29799 407.6069,166.60534 407.6069,166.60534 L 433.25057,212.49399 452.14589,115.318 372.51556,82.926009 388.71157,127.465 c 0,0 -98.3366,30.75985 -159.0716,127.93586"
         style="fill:#ffffff;fill-opacity:1;stroke:#000000;stroke-width:7.91641998;stroke-linecap:butt;stroke-linejoin:miter;stroke-miterlimit:4;stroke-opacity:1;stroke-dasharray:none" />
    </g>
  </g>
</svg>
